<?xml version="1.0" encoding="utf-8"?>
<!-- Generator: Adobe Illustrator 23.0.1, SVG Export Plug-In . SVG Version: 6.00 Build 0)  -->
<svg version="1.1" id="Слой_1" xmlns="http://www.w3.org/2000/svg" xmlns:xlink="http://www.w3.org/1999/xlink" x="0px" y="0px"
	 viewBox="0 0 61.1 63.8" style="enable-background:new 0 0 61.1 63.8;" xml:space="preserve">
<style type="text/css">
	.st0{fill:#ff7e73;}
	.st1{fill:#ff7e73;}
	.st2{fill:#ff7e73;}
	.st3{fill-opacity:0.1;}
</style>
<path class="st0" d="M41.8,3.3c-0.4,0-0.9,0.1-1.2,0.4c-0.4,0.2-0.7,0.6-0.8,1l-1,2.1l-4,8.1L31,21.8L27.2,15
	c-1.4-2.7-2.8-5.4-4-8.2l-1-2l-0.8-1c-0.4-0.3-0.8-0.4-1.3-0.4h-13c-0.5,0-1,0.2-1.5,0.5C5.2,4.2,4.9,4.7,4.8,5.2
	c-0.1,0.3-0.1,0.7,0,1L5,6.7c2.8,5.4,5.7,10.7,8.6,15.9c2.9,5,5.9,10,9.1,15V56c0,0.6,0.2,1.2,0.6,1.7c0.4,0.4,1,0.6,1.6,0.6h11.4
	c0.6,0,1.2-0.2,1.6-0.6c0.4-0.4,0.7-1,0.7-1.7V37.3l9-14.8l8.6-15.9l0.2-0.4v-1c-0.1-0.5-0.4-0.9-0.8-1.3c-0.4-0.3-0.9-0.5-1.4-0.5
	L41.8,3.3 M3.1,8L3,7.7c-0.5-0.9-0.6-2-0.4-3c0.2-1,0.7-1.9,1.6-2.6c0.8-0.7,1.8-1,2.9-1h13.2c0.9,0,1.7,0.2,2.5,0.7l0,0
	c0.7,0.5,1.3,1.2,1.6,2c1.5,3.4,3.1,6.8,4.9,10.1v-0.1l1.8,3.3l1.8-3.3l4.9-10l0,0c0.3-0.8,0.9-1.5,1.6-2h0.1
	c0.7-0.5,1.5-0.7,2.4-0.7h12.5c1,0,2,0.4,2.8,1l0,0c0.8,0.7,1.4,1.6,1.6,2.6c0.2,1,0.1,2.1-0.4,3L58.2,8c-2.8,5.3-5.6,10.5-8.6,15.6
	C46.9,28.4,44,33.2,41,38v18c-0.1,2.5-2.1,4.4-4.5,4.5H25c-2.5,0-4.5-2-4.5-4.5V38.2l-8.8-14.5C8.7,18.6,5.8,13.3,3.1,8"/>
<path class="st1" d="M41.8,3.3h12.5c0.5,0,1,0.2,1.4,0.5s0.7,0.8,0.8,1.2v1l-0.2,0.4l-8.6,15.9l-9,14.8v18.6c0,0.6-0.2,1.2-0.7,1.6
	c-0.4,0.4-1,0.6-1.6,0.6H25c-0.6,0-1.2-0.2-1.6-0.6c-0.4-0.4-0.7-1-0.6-1.7V37.5c-3.2-5-6.2-10-9.1-15c-3-5.2-5.9-10.5-8.6-15.8
	L4.9,6.2c-0.1-0.3-0.1-0.7,0-1c0.1-0.5,0.3-1,0.7-1.3C6,3.5,6.5,3.3,7.1,3.4h13.2c0.4,0,0.9,0.1,1.3,0.4l0.8,1l1,2.1
	c1.2,2.8,2.6,5.5,4,8.2l3.8,6.8l3.8-6.8L39,7l1-2.1c0.2-0.4,0.5-0.8,0.8-1C41,3.4,41.4,3.3,41.8,3.3 M41.8,5.6l-5,10.4l-5.9,10.3
	L25.1,16c-1.8-3.4-3.4-6.9-4.9-10.4H7.1c2.8,5.4,5.6,10.6,8.6,15.8s6.1,10.3,9.4,15.4v19.1h11.4V36.7l9.3-15.3l8.5-15.7L41.8,5.6"/>
<path class="st2" d="M41.8,5.7h12.5l-8.5,15.7l-9.3,15.3V56H25V36.8c-3.3-5.1-6.4-10.2-9.4-15.4S9.8,11.1,7.1,5.7h13.2
	c1.5,3.5,3.2,6.9,5,10.4L31,26.4L36.8,16L41.8,5.7"/>
<path class="st3" d="M58.2,8l0.5,1.3c0.2,1,0.1,2.1-0.4,3c-2.8,5.5-5.7,10.8-8.6,16L41,42.5V38c3-4.8,5.9-9.6,8.7-14.4
	C52.6,18.5,55.5,13.3,58.2,8 M41,56v4.5c0,2.5-2.1,4.5-4.6,4.5H25c-2.5,0-4.5-2.1-4.5-4.5V56c0.1,2.5,2.1,4.4,4.5,4.5h11.4
	C38.9,60.4,40.9,58.5,41,56 M20.5,42.7l-8.8-14.4c-3-5.2-5.9-10.5-8.7-16c-0.5-0.9-0.6-2-0.4-3.1v0.1L3.1,8
	c2.7,5.3,5.6,10.6,8.6,15.7l8.8,14.5V42.7"/>
</svg>
