<svg  fill="#6d6d6d" aria-hidden="true" focusable="false"  width="16" height="16" viewBox="0 0 15 13" xmlns="http://www.w3.org/2000/svg" data-testid="CLOCK"><path d="M8 2C11.3137 2 14 4.68629 14 8C14 11.3137 11.3137 14 8 14C4.68629 14 2 11.3137 2 8C2 4.68629 4.68629 2 8 2ZM8 3.5C5.51472 3.5 3.5 5.51472 3.5 8C3.5 10.4853 5.51472 12.5 8 12.5C10.4853 12.5 12.5 10.4853 12.5 8C12.5 5.51472 10.4853 3.5 8 3.5ZM8 4.72178C8.3797 4.72178 8.69349 5.00394 8.74315 5.37001L8.75 5.47178V7.52334C8.75 7.62941 8.79213 7.73114 8.86712 7.80615L10.1982 9.13758C10.4645 9.40385 10.4887 9.82051 10.2709 10.1141L10.1982 10.1982C9.93198 10.4645 9.51531 10.4887 9.2217 10.2709L9.13758 10.1982L7.54289 8.60355C7.35536 8.41602 7.25 8.16166 7.25 7.89645V5.47178C7.25 5.05757 7.58579 4.72178 8 4.72178Z"></path></svg>